<?xml version="1.0" encoding="UTF-8" standalone="no"?>
<svg
   id="svg5"
   version="1.1"
   viewBox="0 0 256.00001 256"
   sodipodi:docname="icon.svg"
   inkscape:version="1.2.2 (b0a8486541, 2022-12-01)"
   width="256"
   height="256"
   inkscape:export-filename="icon.png"
   inkscape:export-xdpi="96"
   inkscape:export-ydpi="96"
   xmlns:inkscape="http://www.inkscape.org/namespaces/inkscape"
   xmlns:sodipodi="http://sodipodi.sourceforge.net/DTD/sodipodi-0.dtd"
   xmlns="http://www.w3.org/2000/svg"
   xmlns:svg="http://www.w3.org/2000/svg">
  <defs
     id="defs1">
    <style
       id="style1">
      .cls-1 {
        fill: none;
      }

      .cls-1, .cls-2, .cls-3 {
        stroke-width: 0px;
      }

      .cls-2 {
        fill: #009;
      }

      .cls-4 {
        fill: #fff;
        stroke: #06068e;
        stroke-miterlimit: 10;
        stroke-width: 7.6px;
      }

      .cls-3 {
        fill: #ff7a00;
      }
    </style>
  </defs>
  <sodipodi:namedview
     id="namedview7"
     bordercolor="#000000"
     borderopacity="0.25"
     inkscape:current-layer="svg5"
     inkscape:cx="116.55623"
     inkscape:cy="132.02415"
     inkscape:deskcolor="#d1d1d1"
     inkscape:document-units="mm"
     inkscape:pagecheckerboard="0"
     inkscape:pageopacity="0.0"
     inkscape:showpageshadow="2"
     inkscape:window-height="1403"
     inkscape:window-maximized="1"
     inkscape:window-width="2560"
     inkscape:window-x="1920"
     inkscape:window-y="201"
     inkscape:zoom="3.200172"
     pagecolor="#ffffff"
     showgrid="false"
     showguides="false" />
  <rect
     style="fill:#ffffff;stroke:none;stroke-width:5;stroke-linecap:square;stroke-dasharray:none;paint-order:normal"
     id="rect1858"
     width="256"
     height="256"
     x="0"
     y="0"
     rx="64" />
  <g
     id="_defs"
     data-name="&amp;lt;defs"
     transform="translate(-2.9743217,-2)">
    <inkscape:path-effect
       id="path-effect11582"
       apply_no_weight="true"
       apply_with_weight="true"
       effect="bspline"
       helper_size="0"
       is_visible="true"
       lpeversion="1"
       only_selected="false"
       steps="2"
       weight="33.333333" />
  </g>
  <g
     id="g513"
     transform="matrix(2.1731124,0,0,2.1731124,32.653222,9.9999992)">
    <path
       class="cls-4"
       d="M 19.925678,47.7"
       id="path1" />
    <path
       class="cls-4"
       d="M 40.725678,62.4"
       id="path2" />
    <g
       id="g4"
       transform="translate(-2.9743217,-2)">
      <path
         class="cls-3"
         d="M 59.9,62.1 C 59.2,57.9 55.5,55 51.4,55 c -0.5,0 -1,0 -1.5,0.1 -4.7,0.8 -7.8,5.3 -7,9.9 0.7,4.2 4.4,7.1 8.5,7.1 4.1,0 1,0 1.5,-0.1 4.7,-0.8 7.8,-5.3 7,-9.9 z"
         id="path3" />
      <path
         class="cls-2"
         d="M 50.4,96.4 C 52.8,90.6 54.5,83 55,75.2 c -0.5,0.1 -1,0.3 -1.5,0.4 -0.7,0.1 -1.4,0.2 -2.1,0.2 -1.7,0 -3.3,-0.3 -4.8,-1 -0.7,7.7 -2.9,14.5 -5.2,18.9 0,0 -0.1,0 -0.2,0 -9.3,0 -16.9,7.5 -16.9,16.9 H 58 c 0,-5.9 -3.1,-11.2 -7.7,-14.2 z"
         id="path4" />
    </g>
    <g
       id="g8"
       transform="translate(-2.9743217,-2)">
      <path
         class="cls-2"
         d="m 20.1,44.4 c -0.7,-4.2 -4.4,-7.1 -8.5,-7.1 -0.6,0 -1,0 -1.5,0.1 -4.7,0.8 -7.8,5.3 -7,9.9 0.7,4.2 4.4,7.1 8.5,7.1 0.10349,0 1,0 1.5,-0.1 4.7,-0.8 7.8,-5.3 7,-9.9 z"
         id="path5"
         sodipodi:nodetypes="csccscc" />
      <g
         id="g7">
        <path
           class="cls-1"
           d="m 20.1,44.4 c -0.7,-4.2 -4.4,-7.1 -8.5,-7.1 -4.1,0 -1,0 -1.5,0.1 -4.7,0.8 -7.8,5.3 -7,9.9 0.7,4.2 4.4,7.1 8.5,7.1 4.1,0 1,0 1.5,-0.1 4.7,-0.8 7.8,-5.3 7,-9.9 z"
           id="path6" />
        <path
           class="cls-2"
           d="m 40.4,58.4 c -7.5,-1.4 -15,-5.3 -18.1,-8.1 -0.3,0.8 -0.7,1.5 -1.2,2.2 -0.9,1.3 -2,2.3 -3.3,3.1 3.3,3 9,6.7 14.3,8.7 2.2,0.8 4.8,1.6 7.5,2.2 0,-0.3 -0.2,-0.7 -0.2,-1 -0.4,-2.5 0,-5 1,-7.2 z"
           id="path7" />
      </g>
    </g>
    <g
       id="g11"
       transform="translate(-2.9743217,-2)">
      <path
         class="cls-2"
         d="M 52.9,12.1 C 51.9,6.2 46.7,2 40.9,2 c -0.7,0 -1.4,0 -2.1,0.2 -6.7,1.2 -11.1,7.5 -10,14.1 1,5.9 6.2,10.1 12,10.1 0.601361,0 1.4,0 2.1,-0.2 6.7,-1.2 11.1,-7.5 10,-14.1 z"
         id="path8"
         sodipodi:nodetypes="csccscc" />
      <g
         id="g10">
        <path
           class="cls-1"
           d="m 43.9,26.1 3.4,-3.6 c 0.4,0.4 0.8,0.8 1.2,1.3 3.3,-2.7 5.1,-7 4.3,-11.5 -1,-5.9 -6.2,-10.1 -12,-10.1 -0.7,0 -1.4,0 -2.1,0.2 -6.7,1.2 -11.1,7.5 -10,14.1 1,5.9 6.2,10.1 12,10.1 5.8,0 1.4,0 2.1,-0.2 0.3,0 0.7,-0.1 1,-0.2 z"
           id="path9" />
        <path
           class="cls-2"
           d="m 50.4,26.1 c -1.9,1.5 -4.1,2.5 -6.5,3 1.8,2.8 3.1,7.4 4.1,12.5 0.7,3.3 0.9,6.7 0.9,9.9 0.2,0 0.3,0 0.5,0 0.7,-0.1 1.4,-0.2 2.1,-0.2 v 0 c 2.1,0 4.1,0.5 5.9,1.5 0,-10.1 -2.9,-20.4 -7,-26.7 z"
           id="path10" />
      </g>
    </g>
    <g
       id="g14"
       transform="translate(-2.9743217,-2)">
      <path
         class="cls-2"
         d="m 90.6,26.7 c -0.7,-4.2 -4.400023,-7.113594 -8.5,-7.1 -0.658419,0.0022 -1,0 -1.5,0.1 -4.7,0.8 -7.8,5.3 -7,9.9 0.7,4.2 4.4,7.1 8.5,7.1 0.228046,0 1,0 1.5,-0.1 4.7,-0.8 7.8,-5.3 7,-9.9 z"
         id="path11"
         sodipodi:nodetypes="csccscc" />
      <g
         id="g13">
        <path
           class="cls-1"
           d="m 82.1,19.6 c -0.5,0 -1,0 -1.5,0.1 -4.7,0.8 -7.8,5.3 -7,9.9 0.7,4.2 4.4,7.1 8.5,7.1 4.1,0 1,0 1.5,-0.1 4.7,-0.8 7.8,-5.3 7,-9.9 -0.7,-4.2 -4.4,-7.1 -8.5,-7.1 z"
           id="path12" />
        <path
           class="cls-2"
           d="m 66.6,50.9 c -1.8,1.8 -3.9,3.3 -6,4.6 1.5,1.6 2.5,3.7 2.9,6 0.1,0.7 0.2,1.4 0.2,2 2.5,-1.7 5,-3.7 7.3,-5.9 5.4,-5.3 9.1,-12 10.6,-17.8 -2.5,-0.1 -4.8,-1 -6.6,-2.4 -1.1,4.6 -3.7,9 -8.4,13.5 z"
           id="path13" />
      </g>
    </g>
  </g>
</svg>
